<svg xmlns="http://www.w3.org/2000/svg" width="28" height="28" viewBox="0 0 28 28" fill="none">
  <path fill-rule="evenodd" clip-rule="evenodd" d="M6.01006 6.01029C6.2726 5.74783 6.62863 5.60039 6.99986 5.60039C7.37109 5.60039 7.72712 5.74783 7.98966 6.01029L13.9999 12.0205L20.0101 6.01029C20.1392 5.87658 20.2937 5.76992 20.4645 5.69655C20.6353 5.62317 20.819 5.58455 21.0049 5.58294C21.1908 5.58132 21.3751 5.61675 21.5472 5.68714C21.7192 5.75753 21.8756 5.86149 22.007 5.99294C22.1385 6.12439 22.2424 6.2807 22.3128 6.45275C22.3832 6.62481 22.4186 6.80916 22.417 6.99505C22.4154 7.18094 22.3768 7.36465 22.3034 7.53546C22.23 7.70626 22.1234 7.86074 21.9897 7.98989L15.9795 14.0001L21.9897 20.0103C22.2447 20.2743 22.3858 20.628 22.3826 20.9951C22.3794 21.3621 22.2322 21.7133 21.9726 21.9728C21.713 22.2324 21.3619 22.3796 20.9948 22.3828C20.6277 22.386 20.2741 22.2449 20.0101 21.9899L13.9999 15.9797L7.98966 21.9899C7.72562 22.2449 7.37197 22.386 7.0049 22.3828C6.63782 22.3796 6.28669 22.2324 6.02711 21.9728C5.76754 21.7133 5.62031 21.3621 5.61712 20.9951C5.61393 20.628 5.75504 20.2743 6.01006 20.0103L12.0203 14.0001L6.01006 7.98989C5.7476 7.72735 5.60016 7.37132 5.60016 7.00009C5.60016 6.62886 5.7476 6.27283 6.01006 6.01029Z" fill="#4B164C"/>
</svg>